<?xml version="1.0" encoding="utf-8"?>
<!-- Generator: Adobe Illustrator 25.4.1, SVG Export Plug-In . SVG Version: 6.00 Build 0)  -->
<svg version="1.1" id="Layer_1" xmlns="http://www.w3.org/2000/svg" xmlns:xlink="http://www.w3.org/1999/xlink" x="0px" y="0px"
	 viewBox="0 0 210.04 154.22" style="enable-background:new 0 0 210.04 154.22;" xml:space="preserve">
<style type="text/css">
	.st0{fill:#9097FD;}
	.st1{fill:#E3DFF8;}
</style>
<g>
	<g>
		<g>
			<g>
				<path class="st0" d="M42.27,93.21l-7.83,12.35l-7.7-5.58l9.16-11.28l-14.07-3.45l3.05-9.16l13.54,5.44l-1.06-14.6h9.56
					l-0.93,14.6l13.67-5.44l2.92,9.16l-14.07,3.45l9.29,11.28l-7.7,5.58L42.27,93.21z"/>
			</g>
		</g>
	</g>
	<g>
		<g>
			<path class="st1" d="M101.52,123.48c-0.05,5.16-3.82,9.11-8.36,9.07c-2.32-0.02-4.01-0.83-5.14-2.16L88,132.01l-5.19-0.05
				l0.22-24.24l5.19,0.05l-0.08,8.55c1.15-1.31,2.86-2.09,5.18-2.07C97.86,114.3,101.56,118.32,101.52,123.48z M96.32,123.43
				c0.02-2.6-1.69-4.24-4.08-4.26c-2.39-0.02-4.14,1.59-4.16,4.19c-0.02,2.6,1.69,4.24,4.08,4.26
				C94.55,127.64,96.3,126.03,96.32,123.43z"/>
			<path class="st1" d="M120.28,110.2l-1.68,17.73c-0.55,5.81-3.01,8.67-7.77,9.61l-1.17-4.7c2.35-0.59,3.28-1.6,3.5-3.84
				l-10.68-14.36l5.54-1.38l6.29,9.35l0.59-11.07L120.28,110.2z"/>
			<path class="st1" d="M161.13,104.11l-4.36,3.42l-8.7-11.09l1.42,11.96l-0.49,0.38l-11.28-4.22l8.7,11.09l-4.36,3.42L127.1,100
				l4.36-3.42l11.82,4.41l-1.47-12.53l4.36-3.42L161.13,104.11z"/>
			<path class="st1" d="M168.84,86.83c0.79-1.18,1.01-2.49,0.76-3.49l4.3-2.12c1.01,2.72,0.59,5.52-1.24,8.26
				c-3.3,4.92-8.65,5.75-12.93,2.88c-4.29-2.87-5.51-8.2-2.46-12.74c2.82-4.2,8.15-5.13,12.49-2.21c0.6,0.4,1.14,0.85,1.61,1.33
				l-6.85,10.21C166.38,89.39,167.78,88.41,168.84,86.83z M165.38,80.68c-1.98-0.66-3.45,0.23-4.32,1.53
				c-1.1,1.64-1.03,3.27,0.17,4.66L165.38,80.68z"/>
			<path class="st1" d="M175.66,55.84l10.07,3.42l-1.67,4.92L174.71,61c-2.03-0.69-3.42,0.27-3.95,1.84
				c-0.61,1.8,0.01,3.41,2.34,4.2l8.95,3.04L180.38,75l-16.39-5.57l1.67-4.92l1.54,0.52c-0.91-1.3-1.14-3.2-0.41-5.37
				C167.91,56.35,171.23,54.34,175.66,55.84z"/>
			<path class="st1" d="M175.52,43.57l6.09,0.66c1.48,0.16,1.76-1.1,1.87-3.38l4.68,0.51c-0.05,6.82-2.29,8.56-7.11,8.04l-6.09-0.66
				l-0.3,2.75l-4.96-0.54l0.3-2.75l-3.27-0.36l-0.99-5.33l4.82,0.53l0.39-3.55l4.96,0.54L175.52,43.57z"/>
			<path class="st1" d="M169.3,18.66l17.2-1.98l0.59,5.16l-1.62,0.19c1.44,0.98,2.42,2.58,2.69,4.88c0.52,4.51-3.01,8.68-8.13,9.27
				c-5.13,0.59-9.51-2.67-10.03-7.17c-0.27-2.3,0.33-4.08,1.51-5.37l-1.62,0.19L169.3,18.66z M178.49,22.83
				c-2.58,0.3-4,2.2-3.72,4.58c0.27,2.37,2.09,3.91,4.67,3.61c2.58-0.3,4-2.2,3.72-4.58C182.89,24.07,181.07,22.53,178.49,22.83z"/>
		</g>
	</g>
</g>
</svg>
