<?xml version="1.0" encoding="utf-8"?>
<!-- Generator: Adobe Illustrator 25.4.1, SVG Export Plug-In . SVG Version: 6.00 Build 0)  -->
<svg version="1.1" id="Layer_1" xmlns="http://www.w3.org/2000/svg" xmlns:xlink="http://www.w3.org/1999/xlink" x="0px" y="0px"
	 viewBox="0 0 692 361" style="enable-background:new 0 0 692 361;" xml:space="preserve">
<style type="text/css">
	.st0{fill:#FBF6F2;}
	.st1{fill:#EF8E85;}
</style>
<path class="st0" d="M232.24,200.87h-25.8v-65.64l-29.19,47.9h-2.9l-29.19-47.9v65.64h-25.8V87.98h25.8l30.64,50.16l30.64-50.16
	h25.8V200.87z"/>
<path class="st0" d="M290.75,181.51c6.61,0,12.26-2.58,15.48-6.13l19.35,11.13c-7.9,10.97-19.84,16.61-35.16,16.61
	c-27.58,0-44.67-18.55-44.67-42.58s17.42-42.58,42.9-42.58c23.55,0,40.96,18.22,40.96,42.58c0,3.39-0.32,6.61-0.97,9.68H271.4
	C274.46,178.61,281.88,181.51,290.75,181.51z M305.59,152.16c-2.58-9.35-9.84-12.74-17.1-12.74c-9.19,0-15.32,4.52-17.58,12.74
	H305.59z"/>
<path class="st0" d="M419.74,151.36v49.51h-24.19V154.9c0-10-6.29-14.68-14.03-14.68c-8.87,0-15,5.16-15,16.61v44.03h-24.19v-80.64
	h24.19v7.58c4.35-5.97,12.42-9.84,23.06-9.84C405.87,117.97,419.74,129.58,419.74,151.36z"/>
<path class="st0" d="M466.99,143.45V172c0,6.93,5.97,7.58,16.61,6.93v21.93c-31.61,3.23-40.8-6.29-40.8-28.87v-28.55h-12.9v-23.22
	h12.9v-15.32l24.19-7.26v22.58h16.61v23.22H466.99z"/>
<path class="st0" d="M580.43,120.23v80.64h-24.19v-7.58c-5.32,6.13-13.22,9.84-24.03,9.84c-21.13,0-38.54-18.55-38.54-42.58
	s17.42-42.58,38.54-42.58c10.81,0,18.71,3.71,24.03,9.84v-7.58H580.43z M556.24,160.55c0-12.1-8.06-19.68-19.19-19.68
	c-11.13,0-19.19,7.58-19.19,19.68c0,12.1,8.06,19.68,19.19,19.68C548.18,180.22,556.24,172.64,556.24,160.55z"/>
<g>
	<g>
		<g>
			<path class="st1" d="M132.01,260.68l-7.83,12.35l-7.7-5.58l9.16-11.28l-14.07-3.45l3.05-9.16l13.54,5.44l-1.06-14.6h9.56
				l-0.93,14.6l13.67-5.44l2.92,9.16l-14.07,3.45l9.29,11.28l-7.7,5.58L132.01,260.68z"/>
		</g>
	</g>
</g>
</svg>
